<svg id="visual" viewBox="0 0 960 540" width="960" height="540" xmlns="http://www.w3.org/2000/svg" xmlns:xlink="http://www.w3.org/1999/xlink" version="1.1"><rect x="0" y="0" width="960" height="540" fill="#f7f4ed"></rect><path d="M0 62L32 57.3C64 52.7 128 43.3 192 42.2C256 41 320 48 384 53C448 58 512 61 576 65.8C640 70.7 704 77.3 768 74.3C832 71.3 896 58.7 928 52.3L960 46L960 0L928 0C896 0 832 0 768 0C704 0 640 0 576 0C512 0 448 0 384 0C320 0 256 0 192 0C128 0 64 0 32 0L0 0Z" fill="#ffdb99" stroke-linecap="round" stroke-linejoin="miter"></path></svg>